<?xml version="1.0" standalone="no"?>
<!DOCTYPE svg PUBLIC "-//W3C//DTD SVG 20010904//EN"
 "http://www.w3.org/TR/2001/REC-SVG-20010904/DTD/svg10.dtd">
<svg version="1.0" xmlns="http://www.w3.org/2000/svg"
 width="1024.000000pt" height="1024.000000pt" viewBox="0 0 1024.000000 1024.000000"
 preserveAspectRatio="xMidYMid meet">

<g transform="translate(0.000000,1024.000000) scale(0.100000,-0.100000)"
fill="#000000" stroke="none">
<path d="M1328 8153 c-49 -8 -164 -70 -192 -104 -51 -60 -87 -147 -91 -215 -2
-34 -9 -72 -15 -83 -11 -21 -16 -23 -74 -25 -16 0 -31 -6 -33 -11 -3 -9 41
-85 80 -140 13 -18 17 -18 55 -6 37 13 43 12 76 -8 106 -66 101 -153 -12 -213
-28 -15 -32 -22 -32 -57 0 -47 7 -55 95 -106 37 -22 80 -55 94 -72 37 -47 50
-155 51 -420 l0 -222 -29 -20 c-16 -12 -37 -21 -46 -21 -28 0 -73 -39 -92 -78
-14 -29 -18 -63 -18 -153 0 -64 5 -127 11 -140 27 -57 33 -78 45 -142 12 -64
15 -69 53 -90 80 -44 74 57 75 -1310 1 -911 -1 -1223 -10 -1240 -6 -12 -36
-50 -65 -85 -72 -85 -75 -99 -31 -170 43 -70 101 -242 131 -392 3 -14 11 -34
19 -44 14 -19 15 -19 31 6 9 14 25 70 36 124 26 135 55 226 97 310 43 85 41
105 -20 172 -23 26 -48 57 -54 69 -10 18 -13 278 -13 1205 0 651 3 1193 6
1206 4 12 11 22 16 22 6 0 45 -16 88 -35 43 -19 91 -35 107 -35 37 0 85 43
110 101 17 38 27 47 61 57 50 15 127 84 230 205 l76 90 36 -39 c26 -28 44 -64
64 -124 l27 -85 -4 -255 c-5 -272 -11 -323 -57 -535 -15 -68 -27 -129 -40
-200 -7 -33 -16 -82 -21 -110 -10 -50 -24 -136 -35 -209 -4 -21 -19 -63 -35
-93 -34 -65 -36 -96 -9 -141 31 -51 26 -76 -30 -132 -54 -54 -61 -82 -38 -146
18 -51 0 -79 -60 -95 -66 -16 -66 -15 -92 -204 -5 -33 -14 -89 -19 -124 -16
-90 -5 -121 49 -149 25 -12 51 -30 58 -39 8 -12 12 -64 12 -177 0 -153 -7
-199 -35 -248 -10 -17 -80 -68 -93 -68 -23 0 -112 -118 -112 -147 0 -10 -5
-24 -10 -29 -6 -6 -10 -42 -8 -84 3 -67 5 -75 31 -94 25 -18 45 -21 163 -24
137 -4 230 10 312 43 19 8 60 15 91 15 61 0 111 23 131 60 11 21 10 88 -6 288
-3 39 -1 94 5 121 6 26 13 114 17 195 l7 146 40 11 c23 6 56 26 74 44 l33 33
0 179 0 180 -52 33 c-29 18 -55 35 -57 37 -3 2 6 25 18 51 l23 48 -26 62 c-14
34 -26 67 -26 74 0 7 26 36 57 64 l57 51 2 114 c2 170 56 389 96 389 30 0 60
-66 69 -155 4 -38 13 -90 19 -115 7 -25 15 -92 19 -149 l6 -104 45 -32 c38
-27 45 -37 48 -69 2 -23 -5 -55 -17 -82 -23 -49 -26 -65 -11 -80 5 -5 10 -26
12 -47 2 -34 -3 -42 -42 -76 l-45 -39 3 -173 c4 -193 6 -199 73 -226 29 -11
40 -24 52 -56 26 -69 35 -332 22 -599 -7 -127 -6 -127 19 -153 22 -21 34 -25
88 -25 44 0 90 -9 151 -30 83 -28 98 -30 238 -30 176 0 223 12 245 66 24 57
12 136 -29 199 -29 43 -99 115 -113 115 -19 0 -93 77 -98 102 -6 32 -25 217
-32 319 l-7 87 51 16 c31 11 62 30 78 49 28 34 29 57 4 172 -6 28 -17 93 -24
145 -15 99 -33 130 -77 130 -10 0 -30 5 -44 12 -30 13 -30 30 -4 122 l14 49
-52 46 c-79 71 -80 78 -36 160 l38 69 -36 53 c-35 52 -39 66 -70 234 -15 84
-81 417 -90 460 -31 135 -32 151 -55 550 -6 109 -4 140 10 190 21 71 56 155
65 155 24 -2 54 -46 67 -102 8 -35 22 -84 30 -110 18 -55 12 -81 -28 -122 -25
-25 -29 -35 -24 -65 13 -92 22 -137 29 -148 4 -6 9 -71 11 -145 5 -131 5 -133
33 -156 15 -12 36 -30 45 -39 19 -18 24 -68 8 -78 -5 -3 -10 -30 -10 -59 0
-61 24 -92 75 -98 28 -3 30 -5 27 -42 -2 -21 -13 -54 -23 -74 -25 -43 -21 -69
11 -89 44 -26 102 -2 175 70 78 79 95 125 102 272 5 96 8 113 28 135 39 43 46
64 34 101 -6 19 -15 129 -19 244 -4 116 -10 217 -14 226 -4 9 -28 22 -54 29
-99 25 -85 1 -137 230 -14 63 -34 151 -45 195 -10 44 -21 99 -24 123 -5 36 -4
42 12 42 47 0 139 33 166 59 41 42 30 71 -58 156 -40 39 -88 96 -107 129 -34
59 -120 136 -152 136 -23 0 -79 60 -74 80 2 9 30 60 61 113 45 77 63 98 84
102 83 17 168 92 131 116 -11 7 -10 9 3 9 10 0 25 12 35 28 9 15 30 44 46 65
16 21 27 41 23 44 -4 4 -28 -1 -54 -10 -26 -9 -55 -17 -64 -17 -21 0 -43 34
-52 78 -10 54 -36 102 -57 102 -22 0 -39 -29 -39 -68 0 -16 -11 -44 -25 -63
-13 -19 -32 -45 -42 -58 -14 -20 -17 -42 -15 -121 l3 -98 -51 -101 c-29 -56
-61 -106 -72 -112 -24 -13 -74 -7 -210 26 -22 6 -35 -2 -87 -49 -71 -66 -115
-86 -186 -86 -64 0 -106 20 -160 77 -40 42 -44 43 -103 43 -34 0 -70 -4 -80
-9 -42 -23 -113 -51 -127 -51 -8 0 -23 -4 -33 -9 -9 -5 -35 -14 -57 -21 -76
-24 -161 -70 -196 -107 -96 -102 -121 -123 -143 -123 -29 0 -66 -37 -82 -82
-17 -48 3 -80 63 -103 26 -10 56 -25 66 -33 18 -16 24 -77 7 -87 -5 -3 -10
-15 -10 -25 0 -30 -66 -94 -87 -85 -10 4 -45 15 -78 25 -85 24 -95 30 -95 52
0 46 -24 100 -54 120 -73 50 -69 28 -64 346 4 361 -2 343 173 455 59 37 93 94
76 126 -6 11 -27 25 -46 31 -67 22 -95 95 -59 150 29 43 42 49 98 43 l52 -5
57 63 c31 35 57 70 57 77 0 7 -14 12 -38 12 -57 0 -69 20 -74 120 -3 93 -22
140 -83 216 -63 76 -223 127 -337 107z m137 -144 c111 -42 145 -89 145 -207 0
-88 -14 -119 -92 -197 -68 -68 -80 -126 -49 -241 29 -112 -71 -203 -133 -121
-34 45 -40 83 -22 136 34 95 16 168 -64 256 -60 66 -80 111 -80 179 1 97 50
165 142 197 68 24 86 23 153 -2z m840 -1260 c24 -7 56 -27 80 -53 33 -34 42
-52 50 -101 19 -113 -18 -201 -99 -241 -111 -54 -220 -16 -277 96 -34 66 -36
115 -8 175 24 51 65 89 124 116 46 21 75 23 130 8z m866 -3 c54 -19 104 -62
121 -104 55 -135 31 -246 -64 -292 -104 -50 -222 -5 -273 106 -39 85 -30 172
22 229 64 69 121 87 194 61z m-378 -937 c98 -50 164 -131 185 -227 26 -118
-54 -280 -165 -332 -55 -26 -194 -33 -215 -12 -7 7 -23 12 -36 12 -16 0 -42
18 -75 53 -93 95 -124 251 -71 362 27 57 102 129 155 148 67 24 171 22 222 -4z"/>
<path d="M1331 7861 c-31 -44 -27 -81 13 -120 33 -32 37 -33 66 -21 38 16 70
55 70 86 0 12 -12 36 -26 53 -21 25 -34 31 -64 31 -31 0 -43 -6 -59 -29z"/>
<path d="M2206 6616 c-57 -26 -72 -92 -29 -126 73 -57 180 52 118 120 -20 23
-47 24 -89 6z"/>
<path d="M3095 6618 c-74 -40 -54 -133 31 -145 36 -5 43 -2 62 22 36 46 28 96
-19 120 -33 18 -47 18 -74 3z"/>
<path d="M2637 5690 c-73 -28 -107 -83 -107 -176 0 -175 210 -222 290 -65 55
109 19 210 -87 248 -45 15 -36 16 -96 -7z"/>
<path d="M5010 7778 c-14 -6 -36 -15 -50 -21 -90 -40 -173 -148 -279 -363 -37
-77 -80 -157 -95 -179 -46 -68 -76 -142 -76 -191 0 -50 32 -121 103 -227 37
-56 39 -63 40 -141 3 -111 -8 -128 -102 -173 -74 -36 -79 -37 -180 -35 -57 1
-118 6 -135 11 -57 17 -151 49 -183 62 -24 10 -36 10 -44 2 -13 -13 -29 -72
-36 -130 -5 -41 -5 -42 32 -49 46 -8 116 1 235 32 147 38 190 31 190 -31 0
-27 -8 -40 -37 -64 -21 -17 -48 -31 -60 -31 -12 0 -25 -4 -28 -10 -3 -5 -20
-10 -37 -10 -43 0 -96 -20 -104 -39 -4 -9 -10 -34 -15 -56 -18 -87 -22 -102
-40 -144 -28 -61 -23 -73 41 -88 79 -19 129 -35 175 -55 61 -27 73 -24 80 20
21 137 73 282 101 282 37 0 83 -79 84 -142 0 -15 4 -29 9 -32 11 -7 23 -111
25 -206 l1 -75 70 -14 c64 -12 70 -12 80 4 47 81 76 112 130 140 68 35 141 39
219 12 73 -26 78 -30 121 -101 45 -73 51 -76 150 -52 l50 11 1 140 c0 118 4
150 23 204 25 72 48 111 65 111 15 -1 76 -83 76 -104 0 -9 4 -24 9 -34 18 -36
31 -90 31 -130 0 -22 4 -43 9 -46 5 -3 36 5 69 19 33 13 101 33 151 44 51 11
95 23 100 25 4 3 -5 44 -20 92 -16 48 -29 97 -29 109 0 40 -21 82 -46 94 -14
6 -45 11 -69 11 -24 0 -47 5 -50 10 -3 6 -21 10 -40 10 -26 0 -44 9 -75 39
-36 35 -41 44 -38 78 3 36 5 38 40 41 20 2 59 -4 85 -13 135 -47 268 -65 328
-45 l37 12 -7 47 c-4 25 -11 54 -16 63 -5 9 -9 26 -9 37 0 27 -34 28 -78 1
-18 -11 -48 -20 -67 -20 -18 0 -36 -4 -39 -9 -15 -23 -262 -39 -321 -20 -44
14 -110 55 -138 87 -27 30 -33 125 -13 195 9 31 36 85 60 120 25 36 51 79 60
95 17 33 22 131 7 160 -4 9 -20 40 -34 67 -15 28 -65 127 -113 220 -103 201
-126 237 -196 300 -75 67 -141 93 -188 73z m59 -247 c55 -29 198 -187 221
-246 4 -12 24 -42 43 -67 59 -77 77 -121 77 -187 0 -33 -4 -63 -10 -66 -5 -3
-10 -13 -10 -20 0 -26 -72 -129 -139 -198 -64 -67 -108 -97 -142 -97 -10 0
-21 -4 -24 -10 -8 -12 -89 -13 -113 -1 -9 5 -38 19 -64 31 -54 26 -98 70 -164
165 -59 86 -93 167 -94 220 0 111 223 432 335 481 39 17 40 17 84 -5z m-179
-1076 c16 -8 40 -30 54 -48 23 -30 26 -43 26 -113 0 -86 -8 -102 -67 -142 -38
-27 -105 -28 -147 -3 -16 9 -43 34 -60 54 -56 70 -35 190 43 243 42 28 106 32
151 9z m412 2 c49 -17 88 -54 88 -84 0 -12 5 -43 12 -67 10 -39 9 -50 -7 -86
-26 -57 -82 -92 -149 -94 -61 -1 -91 18 -130 82 -57 94 -41 180 43 233 49 32
86 36 143 16z"/>
<path d="M4985 7359 c-19 -17 -35 -35 -35 -40 0 -4 -13 -28 -30 -52 -16 -25
-30 -48 -30 -51 0 -4 -22 -36 -50 -72 -43 -56 -50 -72 -50 -110 0 -53 26 -109
78 -166 44 -49 117 -98 147 -98 77 0 255 196 255 281 0 24 -67 148 -118 219
-39 54 -105 120 -119 120 -7 0 -28 -14 -48 -31z"/>
<path d="M4793 6324 c-21 -33 -7 -59 33 -59 37 0 66 44 45 69 -21 25 -58 20
-78 -10z"/>
<path d="M5226 6347 c-22 -16 -18 -75 6 -91 23 -14 72 21 76 54 6 41 -45 64
-82 37z"/>
<path d="M6555 7750 c-3 -5 10 -26 28 -47 19 -21 45 -58 59 -83 14 -25 34 -61
45 -80 10 -19 25 -55 33 -80 7 -25 16 -49 19 -55 27 -47 41 -225 22 -263 -66
-129 -66 -214 0 -287 15 -16 30 -39 33 -51 9 -29 -25 -70 -64 -78 -52 -10 -95
-72 -153 -216 -5 -14 -14 -35 -19 -46 -16 -34 -6 -59 24 -62 38 -4 72 -61 64
-105 -4 -18 -11 -70 -16 -117 -25 -216 -39 -298 -51 -306 -5 -3 -9 -14 -9 -26
0 -11 -13 -43 -28 -71 -40 -74 -44 -89 -53 -212 -18 -262 -24 -284 -80 -304
-16 -5 -29 -9 -30 -8 0 1 -2 22 -5 46 -6 64 -45 87 -96 59 -66 -38 -65 -110 4
-198 25 -32 28 -43 30 -135 l3 -100 32 -20 c62 -39 47 -112 -31 -149 -76 -36
-113 -128 -68 -169 28 -25 56 -21 106 18 53 40 61 42 99 16 42 -28 220 -309
330 -521 22 -41 46 -86 55 -100 9 -14 50 -92 92 -175 42 -82 81 -159 87 -170
6 -11 73 -145 149 -298 145 -293 185 -360 274 -453 49 -52 55 -55 58 -35 6 37
-37 241 -59 283 -5 10 -9 22 -9 28 0 22 -75 179 -340 710 -108 217 -210 431
-227 475 -17 44 -43 112 -58 150 -39 101 -75 216 -75 241 0 13 14 32 35 48 20
15 43 38 51 52 21 31 11 74 -16 74 -10 0 -31 5 -45 12 -18 8 -32 8 -48 1 -86
-40 -115 -42 -144 -10 -21 21 -21 27 -12 212 5 105 13 213 19 240 27 129 45
188 91 285 47 101 70 178 103 340 16 78 13 103 -18 190 -10 28 -16 78 -16 134
0 81 3 94 26 128 30 43 81 78 113 78 11 0 30 -9 41 -20 l20 -20 -41 -61 c-38
-57 -41 -66 -41 -130 -1 -40 4 -75 11 -82 6 -6 11 -19 11 -29 0 -10 4 -26 9
-36 23 -45 31 -97 31 -195 0 -60 -4 -109 -10 -112 -5 -3 -10 -17 -10 -30 0
-13 -4 -27 -10 -30 -5 -3 -10 -21 -10 -39 0 -28 5 -36 31 -46 17 -7 58 -31 92
-52 34 -23 90 -47 128 -57 142 -36 206 -124 139 -191 -43 -43 -99 -21 -220 85
-36 31 -83 66 -105 77 -22 11 -52 29 -67 39 -14 11 -32 19 -40 19 -20 0 -52
-38 -67 -80 -13 -36 -24 -63 -40 -102 -15 -36 -23 -95 -28 -217 -6 -156 -4
-161 55 -161 31 0 55 -7 72 -20 14 -11 33 -20 43 -20 17 0 18 8 12 113 -4 61
-11 129 -16 149 -10 40 -3 88 15 100 22 15 73 8 92 -13 16 -18 20 -44 26 -193
4 -94 10 -191 14 -215 8 -56 -10 -139 -47 -215 -16 -32 -29 -67 -29 -77 0 -10
26 -35 68 -63 84 -57 97 -69 150 -134 24 -28 49 -52 56 -52 6 0 44 33 84 73
l72 73 4 389 c2 282 6 396 15 413 11 21 17 22 64 16 29 -4 55 -12 59 -18 12
-17 9 -91 -3 -103 -11 -11 -6 -505 7 -682 6 -85 3 -98 -38 -190 l-20 -45 30
-60 c53 -109 86 -272 62 -315 -6 -12 -29 -33 -50 -46 l-40 -25 0 -78 c0 -79
16 -143 41 -167 8 -7 30 -22 49 -32 41 -23 69 -73 70 -125 0 -20 4 -39 9 -42
5 -3 11 -23 14 -43 3 -21 10 -56 16 -78 9 -38 17 -67 43 -175 17 -68 14 -231
-7 -367 -22 -146 -17 -162 62 -183 26 -8 75 -25 108 -38 98 -40 160 -52 265
-52 91 0 101 2 129 26 61 51 36 117 -71 189 -79 53 -117 91 -167 164 -50 73
-70 113 -86 170 -20 69 -46 280 -61 493 -5 83 -5 87 18 98 43 23 68 53 68 82
0 57 -40 162 -73 191 -17 15 -35 27 -40 27 -19 0 -68 43 -84 73 -9 18 -20 50
-24 72 -35 199 -38 232 -43 606 -3 212 -3 395 1 407 7 30 48 30 65 0 23 -43
30 -125 39 -453 10 -375 18 -487 39 -530 9 -17 35 -41 62 -55 67 -37 87 -58
118 -125 56 -120 60 -136 60 -219 0 -79 -1 -82 -40 -131 -42 -53 -51 -94 -25
-115 10 -9 41 -11 98 -8 70 4 96 10 160 41 184 87 261 225 292 522 18 167 44
278 79 334 28 44 135 124 231 174 33 17 105 43 159 58 98 27 100 27 140 9 44
-19 80 -54 114 -111 12 -19 31 -44 43 -55 21 -18 21 -18 36 1 10 14 13 38 11
81 -8 135 -137 312 -294 406 -169 100 -290 134 -564 157 -185 16 -234 22 -265
33 -123 42 -271 144 -376 258 -187 204 -278 356 -310 515 -6 33 -18 75 -26 92
-18 42 -10 83 31 158 40 71 67 82 90 36 9 -17 16 -55 16 -86 0 -30 4 -63 9
-73 5 -9 24 -47 42 -85 72 -145 118 -153 197 -36 19 28 42 49 57 53 34 9 46
39 95 240 22 90 53 201 70 246 36 99 37 121 5 225 -35 112 -57 145 -95 145
-17 0 -32 -6 -34 -12 -2 -7 -9 -33 -16 -58 -7 -25 -16 -56 -20 -70 -25 -81
-31 -114 -34 -195 -6 -127 -15 -174 -39 -224 -24 -49 -59 -71 -85 -54 -9 5
-42 16 -72 23 -30 6 -68 18 -85 25 -67 29 -211 183 -267 285 -36 66 -48 118
-48 203 0 70 3 81 45 160 44 84 54 117 36 117 -12 0 -61 -63 -61 -78 0 -20
-99 -100 -130 -104 -83 -12 -124 17 -184 131 -38 72 -59 87 -71 50 -13 -40 6
-117 46 -184 43 -75 49 -110 19 -120 -21 -7 -66 13 -92 42 -9 10 -34 52 -55
93 -34 68 -37 82 -38 156 0 79 2 85 53 188 45 87 66 117 126 173 89 85 122
101 175 83 56 -18 173 -138 264 -269 78 -112 107 -171 107 -218 0 -30 15 -60
48 -95 29 -31 42 -26 69 26 16 30 13 117 -6 154 -66 132 -84 182 -74 204 6 13
23 82 38 153 29 139 68 237 116 298 34 42 31 46 -17 16 -53 -32 -130 -125
-143 -172 -34 -117 -36 -122 -58 -125 -18 -3 -26 5 -39 35 -9 21 -24 56 -34
78 -28 64 -117 155 -178 182 -70 31 -155 31 -220 1 -86 -40 -143 -112 -198
-245 -9 -24 -20 -43 -25 -43 -4 0 -14 -2 -22 -6 -10 -3 -21 11 -36 48 -58 141
-122 232 -182 263 -32 17 -65 19 -74 5z m730 -1232 c38 -17 35 -72 -7 -115
-51 -53 -87 -46 -185 35 -37 31 -53 51 -53 68 0 24 0 24 110 24 61 0 120 -5
135 -12z m1423 -1866 c2 -7 -3 -12 -12 -12 -9 0 -16 7 -16 16 0 17 22 14 28
-4z m-363 -522 c67 -25 88 -110 38 -150 -51 -40 -109 -5 -119 73 -5 38 -3 51
11 67 20 23 32 24 70 10z"/>
<path d="M2605 7710 c-23 -11 -68 -43 -100 -71 -33 -28 -85 -68 -116 -89 -40
-28 -62 -52 -78 -84 -24 -53 -27 -78 -7 -70 11 4 15 -13 20 -83 9 -125 36
-196 86 -223 34 -18 47 -2 52 59 3 41 13 71 34 106 16 27 36 61 45 76 l15 27
55 -47 c30 -26 80 -62 112 -79 51 -29 57 -30 57 -13 0 10 -7 35 -15 54 -8 20
-15 39 -15 41 0 6 149 -89 165 -105 6 -6 12 -38 15 -72 4 -53 8 -62 24 -62 14
0 28 16 45 50 22 42 26 63 26 137 l0 88 53 0 c32 0 52 4 52 11 0 6 -15 28 -32
49 -18 20 -55 65 -81 99 -27 33 -53 61 -58 61 -21 0 -7 17 27 34 46 21 39 30
-54 61 -51 17 -97 24 -170 27 -89 2 -99 4 -94 20 6 24 -13 23 -63 -2z"/>
<path d="M8204 7675 c-68 -39 -134 -105 -134 -134 0 -11 -4 -23 -10 -26 -5 -3
-10 -35 -10 -70 0 -60 -2 -65 -36 -94 -19 -17 -34 -39 -32 -48 2 -9 29 -34 61
-56 41 -28 67 -56 92 -98 40 -68 43 -103 15 -139 -25 -31 -25 -55 -2 -88 10
-15 26 -45 34 -67 17 -44 41 -56 53 -28 5 10 10 77 13 149 5 143 3 150 -73
333 -26 61 -26 67 -14 115 24 86 111 122 186 76 35 -21 54 -51 73 -117 12 -39
10 -48 -19 -125 -18 -46 -37 -91 -42 -100 -5 -10 -9 -31 -9 -47 0 -16 -5 -52
-12 -80 -9 -39 -9 -64 1 -108 27 -126 47 -183 63 -183 13 0 57 73 77 130 19
55 18 80 -4 80 -6 0 -24 11 -39 25 -56 52 -19 190 72 259 29 23 59 52 68 64
16 23 15 25 -20 61 -30 31 -36 44 -36 81 0 61 -16 114 -45 148 -25 30 -173
122 -196 122 -8 0 -42 -16 -75 -35z"/>
<path d="M7152 7287 c-14 -16 -6 -27 20 -27 13 0 18 6 16 17 -4 22 -22 27 -36
10z"/>
<path d="M4255 6929 c-33 -23 -73 -53 -89 -68 -47 -43 -138 -170 -133 -185 5
-12 42 -27 192 -77 17 -6 73 -13 125 -15 79 -5 101 -2 129 13 66 35 64 56 -18
188 -14 22 -42 72 -62 110 -46 87 -61 91 -144 34z"/>
<path d="M5707 6953 c-8 -10 -29 -43 -45 -73 -16 -30 -48 -88 -71 -129 -45
-81 -55 -110 -44 -127 14 -19 81 -44 117 -44 107 0 379 88 384 125 5 41 -146
198 -227 235 -14 7 -34 16 -43 21 -27 14 -53 11 -71 -8z"/>
<path d="M7793 6747 c5 -15 37 -22 37 -9 0 5 -9 12 -21 15 -13 3 -19 1 -16 -6z"/>
<path d="M7694 6506 c-6 -17 15 -82 36 -112 40 -56 100 -50 100 10 0 40 -28
78 -74 100 -42 20 -55 20 -62 2z"/>
<path d="M8335 6270 c-48 -53 43 -75 181 -44 59 13 72 19 64 29 -12 14 -59 23
-160 31 -58 5 -68 3 -85 -16z"/>
<path d="M3982 5797 c-6 -7 -13 -69 -15 -137 -3 -69 -7 -138 -9 -155 l-3 -30
110 -16 c61 -9 128 -21 150 -28 76 -21 80 -18 98 55 9 36 31 93 48 127 l31 61
-22 18 c-12 10 -35 18 -51 18 -15 0 -31 5 -34 10 -3 6 -17 10 -30 10 -13 0
-27 5 -30 10 -3 6 -16 10 -28 10 -25 0 -95 23 -138 45 -35 18 -63 19 -77 2z"/>
<path d="M6035 5792 c-16 -2 -34 -8 -39 -13 -6 -5 -20 -9 -33 -9 -12 0 -32 -4
-45 -9 -13 -5 -43 -15 -68 -22 -25 -7 -49 -16 -54 -21 -6 -4 -21 -8 -33 -8
-35 0 -83 -28 -83 -48 0 -9 9 -34 20 -55 21 -39 42 -98 54 -151 8 -32 2 -32
141 -2 39 8 101 16 139 18 l69 3 -7 74 c-3 41 -6 111 -6 156 0 89 -3 93 -55
87z"/>
<path d="M4958 5700 c-46 -38 -68 -81 -68 -135 0 -83 52 -135 134 -135 78 0
146 78 146 168 0 41 -5 50 -45 89 -39 37 -51 43 -88 43 -32 0 -51 -7 -79 -30z"/>
<path d="M4584 5572 c-7 -4 -14 -46 -18 -97 -3 -49 -10 -119 -16 -155 -11 -65
-24 -151 -35 -225 -4 -22 -10 -49 -15 -60 -9 -22 -16 -57 -30 -150 -13 -90
-48 -224 -71 -267 -5 -10 -9 -27 -9 -37 0 -11 -4 -23 -10 -26 -5 -3 -10 -17
-10 -30 0 -13 -4 -27 -10 -30 -5 -3 -10 -17 -10 -30 0 -13 -4 -27 -10 -30 -5
-3 -10 -15 -10 -26 0 -10 -4 -27 -9 -37 -5 -9 -26 -59 -46 -111 -36 -94 -113
-263 -141 -311 -29 -50 -104 -211 -104 -224 0 -7 -3 -16 -7 -20 -14 -13 -33
-82 -33 -118 0 -56 21 -48 54 20 44 89 125 208 247 358 135 167 207 276 270
409 91 189 144 389 174 655 9 80 23 192 32 250 9 58 15 114 15 125 -2 53 -16
126 -26 133 -28 21 -154 46 -172 34z"/>
<path d="M5371 5542 c-45 -22 -57 -34 -68 -67 -9 -25 -12 -57 -8 -85 3 -25 10
-124 15 -220 10 -193 25 -298 59 -437 6 -24 15 -60 20 -80 9 -38 15 -60 32
-100 22 -55 27 -71 40 -113 35 -119 179 -348 301 -479 59 -64 168 -211 168
-228 0 -5 18 -30 40 -58 22 -27 40 -56 40 -63 0 -7 4 -20 9 -30 5 -9 12 -25
15 -34 7 -25 33 -22 47 4 9 16 9 35 0 77 -17 81 -43 142 -157 371 -112 227
-120 245 -159 345 -15 39 -33 84 -40 100 -21 45 -60 168 -90 280 -14 55 -35
132 -45 170 -16 62 -26 103 -62 275 -5 25 -22 124 -37 220 -31 201 -29 198
-120 152z"/>
<path d="M5995 5333 c-32 -2 -64 -8 -70 -12 -5 -5 -35 -14 -65 -21 -71 -17
-82 -29 -91 -92 -4 -29 -13 -71 -19 -93 -31 -105 -21 -148 33 -143 25 2 36 11
54 43 12 22 28 40 35 40 6 0 21 -15 31 -33 15 -26 18 -43 13 -86 -6 -44 -15
-63 -57 -112 -54 -64 -61 -95 -27 -118 53 -38 109 -8 179 95 81 120 106 224
95 409 -6 109 -14 133 -41 128 -5 -1 -37 -3 -70 -5z"/>
<path d="M3963 5319 c-17 -17 -16 -207 1 -321 10 -65 24 -108 57 -173 51 -103
85 -135 139 -135 69 0 92 67 45 131 -36 50 -65 114 -65 144 0 37 27 97 42 93
7 -3 29 -25 48 -51 58 -78 106 -58 103 42 -1 57 -37 206 -55 228 -5 6 -32 13
-61 16 -29 2 -70 10 -92 17 -61 19 -148 24 -162 9z"/>
<path d="M4906 5228 c-22 -266 -37 -399 -56 -483 -6 -27 -15 -72 -20 -100 -4
-27 -13 -68 -20 -90 -6 -22 -15 -56 -19 -76 -4 -19 -11 -41 -15 -48 -11 -17
10 -64 66 -149 26 -41 48 -77 48 -81 0 -4 10 -16 21 -27 12 -10 35 -38 51 -61
17 -26 37 -43 49 -43 31 0 103 74 174 180 39 59 79 107 99 120 39 23 39 17 -8
145 -65 178 -94 351 -104 620 -6 155 -9 170 -26 173 -10 2 -29 -1 -41 -8 -22
-12 -93 -9 -161 5 l-31 7 -7 -84z"/>
<path d="M6990 4409 c0 -27 92 -225 184 -394 18 -33 36 -72 39 -85 3 -14 22
-51 42 -84 19 -32 35 -64 35 -71 0 -7 7 -18 15 -25 12 -10 15 -10 15 1 0 8 5
53 10 100 11 97 27 142 66 188 25 30 26 36 20 103 -7 77 -24 158 -36 172 -5 4
-35 -19 -67 -53 -33 -34 -65 -61 -71 -61 -17 0 -64 44 -117 111 -91 113 -135
146 -135 98z"/>
<path d="M4662 4237 c-6 -7 -20 -35 -32 -62 -12 -28 -48 -87 -81 -132 -32 -45
-59 -84 -59 -88 0 -12 -62 -88 -139 -170 -73 -77 -121 -150 -121 -182 0 -9
-16 -38 -36 -65 -44 -62 -64 -123 -51 -159 6 -14 31 -40 56 -56 53 -35 168
-79 179 -69 8 9 19 215 12 225 -3 3 -22 19 -42 34 -33 24 -38 33 -38 68 0 46
24 99 45 99 8 0 35 -14 60 -32 44 -31 49 -32 172 -36 142 -5 215 7 280 44 49
28 68 24 102 -25 34 -48 28 -85 -24 -135 -50 -49 -51 -53 -30 -122 8 -27 15
-68 15 -91 0 -32 5 -45 19 -53 22 -11 105 -13 162 -4 l36 6 7 97 c4 53 10 110
15 126 7 28 4 32 -43 65 -57 40 -72 70 -62 125 7 37 7 37 47 31 22 -4 58 -18
81 -32 85 -54 371 -53 463 1 57 33 69 32 94 -11 32 -53 27 -85 -19 -135 -35
-39 -40 -50 -40 -92 0 -76 19 -137 42 -137 34 0 149 63 180 99 35 40 33 67
-11 152 -44 86 -54 101 -92 149 -19 25 -50 65 -68 90 -17 25 -52 70 -76 100
-111 135 -243 321 -258 363 -3 9 -15 17 -26 17 -20 0 -42 -23 -125 -131 -27
-35 -81 -94 -120 -131 -90 -87 -115 -90 -190 -22 -61 56 -117 123 -186 222
-50 72 -75 87 -98 59z"/>
<path d="M6665 3934 c-8 -20 -15 -42 -15 -48 0 -6 -9 -36 -20 -66 -30 -81 -27
-94 31 -149 l52 -49 9 -104 c9 -97 5 -322 -8 -433 -3 -27 -18 -78 -35 -113
-16 -35 -29 -65 -29 -68 0 -22 -72 -101 -139 -152 -92 -72 -121 -108 -121
-151 0 -24 7 -36 33 -52 28 -18 44 -20 132 -16 80 3 113 9 165 31 95 40 110
45 164 52 33 4 57 14 74 31 24 24 25 28 19 113 -4 49 -11 99 -16 112 -26 66
-36 120 -34 183 1 75 34 244 59 311 15 39 15 45 -2 80 -10 22 -25 50 -34 64
-10 14 -63 115 -120 225 -98 193 -124 235 -141 235 -5 0 -16 -16 -24 -36z"/>
<path d="M4489 3454 c-1 -11 -1 -76 1 -145 1 -70 -2 -142 -8 -160 -6 -19 -16
-54 -24 -79 -22 -78 -56 -138 -94 -167 -131 -100 -159 -143 -159 -247 0 -66 1
-69 35 -98 l35 -29 160 4 c154 4 164 6 268 42 59 20 121 48 137 62 l30 25 0
118 c0 96 -4 127 -20 165 -18 42 -21 74 -24 284 l-4 236 -44 -3 c-78 -6 -202
-4 -245 3 -38 6 -43 5 -44 -11z"/>
<path d="M5232 3462 c-10 -7 -9 -16 3 -45 19 -46 22 -415 3 -450 -7 -14 -12
-77 -12 -168 -1 -188 -8 -177 164 -229 41 -12 88 -26 104 -31 16 -5 87 -9 158
-9 187 0 229 26 228 143 -1 78 -22 126 -76 172 -175 148 -195 193 -201 440 -2
88 -3 166 -3 174 0 10 -10 11 -42 6 -51 -8 -157 -8 -248 0 -36 3 -71 2 -78 -3z"/>
</g>
</svg>
